Coordinates
version=1
nRows=20
nColumns=34
inDegrees=yes

Units are S.I. units (second, meters, Newtons, ...)
If the header above contains a line with 'inDegrees', this indicates whether rotational values are in degrees (yes) or radians (no).

endheader
time	pelvis_tilt	pelvis_list	pelvis_rotation	pelvis_tx	pelvis_ty	pelvis_tz	hip_flexion_r	hip_adduction_r	hip_rotation_r	knee_angle_r	ankle_angle_r	subtalar_angle_r	mtp_angle_r	hip_flexion_l	hip_adduction_l	hip_rotation_l	knee_angle_l	ankle_angle_l	subtalar_angle_l	mtp_angle_l	lumbar_extension	lumbar_bending	lumbar_rotation	arm_flex_r	arm_add_r	arm_rot_r	elbow_flex_r	pro_sup_r	arm_flex_l	arm_add_l	arm_rot_l	elbow_flex_l	pro_sup_l
      7.50000000	    -24.82534513	     14.13336095	   -179.11480596	     -7.52693372	      0.98660411	     -1.39762785	     -6.64414152	     16.37263541	      0.18043848	     61.24826317	    -16.35494821	    -13.29567760	      0.00000000	      2.91349397	     -7.10188547	     -6.98398807	      0.00000000	    -17.07116987	      9.55288464	      0.00000000	    -42.81854294	     11.87600324	     21.81438094	     39.60888177	    -18.33771424	     75.33377993	    100.55653288	    109.74528437	    -18.60767876	      7.40196936	    -24.95399955	     97.26514323	    106.02017503
      7.51666670	    -24.50615425	     13.09394179	   -178.17074147	     -7.56924759	      0.97304491	     -1.40579124	     -4.85523200	     15.52772414	     -0.78277207	     67.86179045	    -15.46613349	    -13.58367668	      0.00000000	      3.21932086	     -5.71913453	     -5.63176999	      0.00000000	    -19.48213755	      8.90377180	      0.00000000	    -40.99777380	     11.05067977	     19.77535786	     41.99730148	    -16.11575419	     86.24512534	    103.78798680	    107.87403686	    -20.89225023	      6.67146937	    -26.24086034	    100.40179585	    106.92789849
      7.53333330	    -24.72583613	     10.13949790	   -177.38988581	     -7.60839111	      0.96218335	     -1.41379386	     -4.21331554	     12.33647005	     -1.88656119	     74.31550995	    -15.47242081	    -15.10155700	      0.00000000	      1.74556693	     -2.55972903	     -3.52706924	      0.00000000	    -20.89656458	      5.30010736	      0.00000000	    -39.98048352	      8.41908587	     16.04560096	     42.76846183	    -11.87338174	     93.95355855	    105.01639494	    105.30456594	    -22.12909743	      5.35570741	    -28.08830145	    102.58344444	    107.79660720
      7.55000000	    -24.69505481	      5.71801332	   -177.31633946	     -7.64333002	      0.95377485	     -1.42104244	     -3.10518720	      7.01912999	     -2.27535453	     80.67059884	    -15.84137531	    -17.41499159	      0.00000000	      1.36644534	      1.97837179	     -0.56688300	      3.79477269	    -19.96774867	     -1.91721319	      0.00000000	    -39.39111537	      3.71951460	     12.72484474	     40.60980913	     -9.03405484	     96.28940689	    105.19920411	    104.02494769	    -21.10136850	      3.55178153	    -27.89288703	    103.90942051	    108.13321797
      7.56666670	    -24.45332710	      1.56202672	   -177.27544687	     -7.67532382	      0.94979959	     -1.42685198	     -1.27969063	      1.57922948	     -2.05181604	     85.99131516	    -16.25559210	    -19.93444613	      0.00000000	      3.59174329	      6.53002594	      3.77760861	     13.67306136	    -17.08215415	    -13.55634748	      0.00000000	    -39.39914755	     -0.48835254	      8.74490484	     38.16456947	     -7.02112829	     95.88818506	    103.34353071	    102.70726192	    -19.09236441	      2.44333437	    -27.54813975	    103.76059965	    108.34179567
      7.58333330	    -24.25425949	     -0.98976374	   -177.47495886	     -7.70716346	      0.94780296	     -1.43316699	      0.74417527	     -1.95021918	     -0.88733046	     89.51773546	    -16.19208322	    -22.12819821	      0.00000000	      6.48347143	      9.66731895	      6.13054168	     25.21213209	    -13.51367412	    -24.06740639	      0.00000000	    -39.60776391	     -3.28914685	      5.93954956	     35.15564151	     -6.76883405	     93.34764053	    101.61527323	    101.27990037	    -16.55174255	      1.97993548	    -26.63179897	    101.85734950	    108.38919132
      7.60000000	    -24.25720103	     -1.84575041	   -177.67197590	     -7.73731397	      0.94886063	     -1.44039497	      2.69816171	     -3.06324919	      0.49912583	     90.86114199	    -15.66556733	    -23.88014641	      0.00000000	      8.06594863	     10.55537944	      6.51981624	     33.87750595	     -8.87634886	    -29.34600252	      0.00000000	    -39.98154229	     -4.42621544	      4.88368042	     32.30627316	     -7.62628347	     89.42771934	    100.33388040	     99.92811748	    -12.86081474	      1.62856562	    -24.78431346	     97.62368831	    108.22650880
      7.61666670	    -25.05179710	     -1.79439614	   -178.06232800	     -7.76283933	      0.95778056	     -1.44644013	      3.89185061	     -2.74875050	      1.93371222	     89.86175882	    -14.44508698	    -25.02570314	      0.00000000	      7.07925078	      9.94258758	      6.07219936	     37.97807913	     -4.69516633	    -30.63537947	      0.00000000	    -41.60839547	     -4.72115937	      4.43847375	     31.22651139	     -8.84777715	     85.67526995	     98.95304013	     99.18704709	     -8.00723894	      1.66950832	    -23.03546337	     91.91645208	    107.85326776
      7.63333330	    -25.99526635	     -0.82860152	   -178.71676795	     -7.78649573	      0.97548049	     -1.45027781	      4.41322577	     -1.20098781	      3.36168509	     86.07253303	    -13.53452721	    -25.73315953	      0.00000000	      4.45944295	      8.11099424	      5.05652142	     38.20287115	     -2.34324767	    -30.16069194	      0.00000000	    -43.76288244	     -4.23974206	      4.63425219	     29.77921518	    -10.35803827	     79.98668738	     96.12076788	     98.88029945	     -2.19935425	      2.21611755	    -21.21505740	     85.00415082	    107.05205182
      7.65000000	    -27.71532092	      0.08591694	   -179.35166276	     -7.81184482	      0.99308659	     -1.45374081	      3.04796564	      0.07333332	      4.31141478	     80.43698098	    -12.24774180	    -26.22104040	      0.00000000	     -0.08442365	      6.60649455	      4.32339734	     36.16406115	     -1.48417287	    -29.44992372	      0.00000000	    -46.85549188	     -3.76508179	      2.94792609	     28.45484810	    -10.04961776	     76.12960332	     93.25577546	     98.87627046	      2.31384755	      3.04702423	    -21.33617939	     81.42811995	    106.61262084
      7.66666670	    -28.76779244	      1.45726599	   -180.21220114	     -7.83926933	      1.00630547	     -1.45883944	      2.02528090	      1.78686466	      5.32494390	     74.26690822	    -11.50478619	    -27.02466367	      0.00000000	     -3.99831475	      4.75196285	      2.88575570	     34.34428015	      0.52065843	    -26.72092419	      0.00000000	    -49.30162695	     -3.03643833	      4.34997352	     21.80126967	    -10.87636774	     67.63287712	     95.50205963	     99.29151694	      7.88096696	      4.07061158	    -17.08802141	     78.50639794	    105.03478547
      7.68333330	    -29.87108821	      2.43688795	   -180.77239980	     -7.86606095	      1.01642799	     -1.46461147	      0.90400463	      2.73731507	      5.63073269	     68.05150296	    -10.47665939	    -27.72110469	      0.00000000	     -8.13505775	      3.62474863	      2.22165451	     32.45721213	      0.92554487	    -26.03715173	      0.00000000	    -51.46854717	     -2.03977191	      3.47305431	     20.94188878	    -10.49217885	     68.04428261	     98.60112484	     99.92822463	     12.93813729	      4.47752908	    -12.38045022	     78.23335759	    104.13195859
      7.70000000	    -30.43134514	      3.41047131	   -181.08293948	     -7.89200095	      1.02168386	     -1.47005373	      0.55417712	      3.61786201	      5.57009498	     61.59878990	     -9.97185348	    -28.38157340	      0.00000000	    -11.41805274	      2.49515654	      1.63252104	     31.14907001	      2.51599597	    -24.48154153	      0.00000000	    -52.86510656	     -0.72613623	      3.49088333	     21.94468195	    -10.76677366	     66.77289999	    104.05626792	    101.03327874	     20.65573668	      5.42587890	     -6.04427901	     76.04274150	    101.34608465
      7.71666670	    -30.81495239	      4.04968160	   -181.52529402	     -7.91671316	      1.02081241	     -1.47506283	      0.49934058	      4.16741390	      5.73072897	     54.69577909	     -8.74345939	    -28.74598695	      0.00000000	    -14.31249138	      1.84179017	      1.01853906	     29.97928453	      4.13139104	    -23.71038783	      0.00000000	    -54.07457499	      0.48903573	      2.27340128	     26.63981679	    -10.63418111	     64.53558066	    110.23746631	    101.52377397	     29.41605964	      6.64899302	     -2.61839582	     73.67606743	    100.51628687
      7.73333330	    -30.83282060	      4.27070995	   -181.68275308	     -7.94204448	      1.02252273	     -1.48011465	      0.11481448	      4.24252968	      5.51392041	     46.36309546	     -7.39888217	    -29.03027314	      0.00000000	    -16.84498307	      1.57955609	      1.05311196	     28.48558410	      5.95913955	    -22.67796133	      0.00000000	    -54.38765089	      1.15549592	      2.40565854	     28.64699671	    -11.12320794	     55.80973108	    114.70791736	    102.02397640	     36.30192994	      7.18533418	      2.96234779	     72.32501344	    100.33699973
      7.75000000	    -30.72578389	      4.15431911	   -181.69865774	     -7.96853324	      1.02455461	     -1.48526343	     -1.11106183	      3.78051827	      4.77423654	     37.02159448	     -6.41251417	    -28.45527649	      0.00000000	    -19.33508066	      1.63011541	      1.52002121	     26.84855308	      6.92055183	    -22.76385682	      0.00000000	    -53.50464638	      1.52586512	      2.90037607	     29.60881354	    -13.03734129	     48.36562868	    115.92726978	    102.30070518	     35.79471863	      5.72041190	      9.88473212	     80.32505228	    100.83192495
      7.76666670	    -30.51808666	      3.69287921	   -181.73643538	     -7.99692026	      1.03631312	     -1.49158401	     -3.24036169	      3.02782717	      3.88224153	     27.03964725	     -5.48931014	    -25.71857463	      0.00000000	    -22.03242650	      1.79501516	      1.71494594	     24.82277687	      6.34004137	    -23.36185662	      0.00000000	    -51.96703317	      1.02352829	      4.07977459	     27.17055637	    -16.00373884	     42.82208198	    117.01353245	    102.98313963	     29.82305446	      1.32389303	     21.72848019	     95.12137330	    101.52569691
      7.78333330	    -30.55239661	      2.56563284	   -181.19383370	     -8.02582921	      1.05270081	     -1.49742210	     -6.07259331	      1.65368537	      1.60965529	     17.34578120	     -4.32949462	    -19.28659713	      0.00000000	    -24.87409015	      2.21475209	      2.20130308	     22.96220425	      3.62002601	    -24.59295469	      0.00000000	    -50.70353991	      0.17206742	      3.03762349	     22.81235751	    -18.00547189	     41.55132889	    117.46740564	    104.60659886	     23.84700445	     -5.56219735	     34.57514381	    109.38479106	    101.93008689
      7.80000000	    -30.26335740	      0.83994105	   -180.47953827	     -8.05402430	      1.06415989	     -1.50253728	     -8.00368955	     -0.09409536	     -1.82925560	      9.33601644	     -3.94387666	     -9.69887043	      0.00000000	    -26.85389423	      3.08869468	      2.95178385	     21.91366396	     -0.54061193	    -26.25960714	      0.00000000	    -49.23561316	     -0.96600935	      0.34433389	     18.76176506	    -19.39176782	     43.00773258	    116.15692081	    106.63328358	     20.61536046	    -11.61298266	     46.79692723	    118.92504273	    102.18379587
      7.81666670	    -29.36842479	     -1.14628609	   -179.81492823	     -8.08200174	      1.06515906	     -1.50852361	     -8.39350021	     -1.82313739	     -4.75414494	      3.44239870	     -6.37679201	     -1.51059301	      0.00000000	    -27.58732868	      4.24924692	      3.89175584	     21.79799161	     -4.56624886	    -26.86484979	      0.00000000	    -47.20601756	     -2.61349063	     -2.85975847	     15.43152738	    -20.21334276	     44.89202021	    113.38414411	    107.84558530	     19.87675457	    -16.24965027	     56.93948908	    125.23801219	    102.50939294
